<?xml version="1.0" encoding="UTF-8" standalone="no"?><!DOCTYPE svg PUBLIC "-//W3C//DTD SVG 1.1//EN" "http://www.w3.org/Graphics/SVG/1.1/DTD/svg11.dtd"><svg width="100%" height="100%" viewBox="0 0 166 232" version="1.1" xmlns="http://www.w3.org/2000/svg" xmlns:xlink="http://www.w3.org/1999/xlink" xml:space="preserve" xmlns:serif="http://www.serif.com/" style="fill-rule:evenodd;clip-rule:evenodd;stroke-linejoin:round;stroke-miterlimit:2;"><path d="M147.553,102.002l0,-98.665l17.421,9.889l-22.772,12.925l22.791,12.936l-22.791,12.936l23.452,13.311l-23.249,13.197l23.249,13.197l-18.101,10.274Z" style="fill:#6bb96d;fill-rule:nonzero;"/><path d="M92.209,162.66l-0.005,0c-1.016,0.002 -1.841,0.83 -1.837,1.847c0.002,0.766 -0.131,1.565 -0.272,2.412c-0.05,0.303 -0.1,0.609 -0.145,0.914c-0.09,0.313 -0.173,0.628 -0.258,0.943c-0.213,0.812 -0.417,1.579 -0.725,2.253l-0.073,0.185c-0.243,0.732 -0.626,1.457 -1.031,2.226c-0.144,0.269 -0.286,0.539 -0.423,0.812l-0.41,0.617c-0.507,0.773 -0.986,1.504 -1.606,2.193c-2.884,3.542 -6.965,6.104 -11.45,7.203c-2.783,0.607 -4.897,0.777 -6.976,0.551c-2.171,-0.114 -4.397,-0.647 -6.622,-1.59c-4.216,-1.759 -7.861,-4.945 -10.266,-8.971c-0.524,-0.875 -1.655,-1.161 -2.526,-0.637c-0.874,0.522 -1.158,1.653 -0.636,2.526c2.806,4.699 7.071,8.422 12,10.479c2.614,1.107 5.258,1.737 7.751,1.863c0.689,0.077 1.375,0.109 2.046,0.109c2.329,0 4.484,-0.397 6.06,-0.741c5.305,-1.299 10.09,-4.306 13.412,-8.393c0.75,-0.829 1.331,-1.715 1.895,-2.571l0.451,-0.682l0.119,-0.205c0.142,-0.283 0.291,-0.563 0.439,-0.843c0.442,-0.84 0.901,-1.708 1.237,-2.689c0.414,-0.93 0.661,-1.856 0.896,-2.753c0.086,-0.327 0.173,-0.653 0.268,-0.976l0.056,-0.258c0.045,-0.322 0.099,-0.642 0.151,-0.962c0.16,-0.959 0.326,-1.951 0.322,-3.026c-0.004,-1.015 -0.827,-1.836 -1.842,-1.836" style="fill:#f9d265;fill-rule:nonzero;"/><path d="M101.898,167.179c-1.47,-0.152 -2.828,0.757 -3.038,2.029c-0.211,1.271 0.569,2.598 2.015,3.022c1.389,0.411 2.969,-0.451 3.234,-1.988c0.262,-1.538 -0.742,-2.911 -2.211,-3.063" style="fill:#f9d265;fill-rule:nonzero;"/><path d="M98.147,179.015c-1.322,-0.688 -2.811,-0.279 -3.559,0.774c-0.695,1.087 -0.348,2.678 0.793,3.568c1.189,0.926 2.868,0.635 3.71,-0.678c0.892,-1.281 0.355,-2.99 -0.944,-3.664" style="fill:#f9d265;fill-rule:nonzero;"/><path d="M86.806,188.085c-1.076,0.709 -1.337,2.31 -0.581,3.579c0.756,1.269 2.434,1.614 3.728,0.748c1.228,-0.957 1.406,-2.671 0.434,-3.779c-0.976,-1.113 -2.57,-1.345 -3.581,-0.548" style="fill:#f9d265;fill-rule:nonzero;"/><path d="M76.193,193.007c-1.233,0.392 -2.111,1.611 -1.879,3.112c0.216,1.42 1.672,2.535 3.17,2.08c1.507,-0.407 2.331,-1.882 1.841,-3.287c-0.484,-1.385 -1.888,-2.245 -3.132,-1.905" style="fill:#f9d265;fill-rule:nonzero;"/><path d="M64.843,193.69c-1.283,-0.156 -2.565,0.79 -2.884,2.227c-0.322,1.447 0.66,2.889 2.217,3.082c1.549,0.18 2.841,-1.004 2.896,-2.464c0.053,-1.493 -0.949,-2.697 -2.229,-2.845" style="fill:#f9d265;fill-rule:nonzero;"/><path d="M53.9,190.088c-1.135,-0.614 -2.664,-0.232 -3.503,0.995c-0.829,1.212 -0.474,2.931 0.896,3.677c1.356,0.769 3.009,0.175 3.599,-1.16c0.607,-1.366 0.127,-2.873 -0.992,-3.512" style="fill:#f9d265;fill-rule:nonzero;"/><path d="M41.528,182.49c-1.199,0.824 -1.501,2.569 -0.486,3.747c0.973,1.214 2.741,1.235 3.772,0.207c1.063,-1.057 1.144,-2.616 0.343,-3.626c-0.846,-0.973 -2.395,-1.18 -3.629,-0.328" style="fill:#f9d265;fill-rule:nonzero;"/><path d="M129.755,0l-26.489,0c-1.751,0 -3.397,0.684 -4.633,1.923c-1.237,1.24 -1.916,2.888 -1.913,4.636l-0.013,147.481c0,0.509 0.412,0.921 0.921,0.921c0.509,0 0.921,-0.412 0.921,-0.921c0,-38.151 37.857,-45.688 38.239,-45.76c0.436,-0.081 0.752,-0.462 0.752,-0.905l0,-99.591c0,-4.947 -2.838,-7.784 -7.785,-7.784" style="fill:#fff;fill-rule:nonzero;"/><path d="M50.567,129.456l-13.957,-15.123c-2.036,-2.208 -4.81,-3.47 -7.811,-3.557c-2.926,-0.034 -5.709,0.984 -7.803,3.006c-13.54,13.08 -20.996,30.648 -20.996,49.467c0,20.033 8.711,39.029 23.9,52.118c0.172,0.147 0.386,0.223 0.602,0.223c0.186,0 0.372,-0.056 0.532,-0.169c0.346,-0.247 0.479,-0.694 0.325,-1.089c-13.219,-33.639 9.131,-58.87 23.63,-70.913c0.434,-0.362 0.75,-0.624 0.927,-0.786c1.878,-1.718 2.97,-4.05 3.077,-6.563c0.103,-2.457 -0.758,-4.806 -2.426,-6.614" style="fill:#fff;fill-rule:nonzero;"/><path d="M50.182,217.739c-1.521,-3.202 -3.522,-5.663 -6.266,-7.104c-0.409,-0.206 -0.822,-0.388 -1.239,-0.559c-1.239,3.731 -1.313,7.507 -0.127,10.806c-2.496,-0.793 -5.262,-1.03 -8.322,-0.67c-0.595,0.072 -1.189,0.173 -1.783,0.296c5.279,3.332 11.009,5.96 16.996,7.732c0.513,0.217 1.041,0.41 1.592,0.559c0.558,0.162 1.123,0.266 1.69,0.33c-0.038,-4.23 -1.044,-8.21 -2.541,-11.39" style="fill:#363e8e;fill-rule:nonzero;"/><path d="M65.551,226.47c2.572,-2.356 4.251,-5.809 4.872,-9.717c-0.45,-0.039 -0.903,-0.047 -1.361,-0.018c-3.119,0.054 -6.033,1.273 -8.857,3.439c-2.797,2.157 -5.505,5.192 -7.483,8.955c0.536,0.189 1.083,0.367 1.652,0.487c0.575,0.123 1.15,0.191 1.722,0.232c6.119,1.161 12.394,1.482 18.6,0.902c-0.471,-0.391 -0.953,-0.764 -1.447,-1.111c-2.548,-1.683 -5.114,-2.73 -7.698,-3.169" style="fill:#363e8e;fill-rule:nonzero;"/><path d="M96.039,225.299c-2.557,-3.239 -5.858,-6.003 -8.943,-7.526c-1.538,-0.71 -3.146,-1.439 -4.687,-1.746c-1.546,-0.317 -3.046,-0.26 -4.601,-0.108c-0.453,0.067 -0.893,0.169 -1.325,0.3c0.691,1.978 1.639,3.781 2.838,5.348c0.598,0.779 1.262,1.516 1.976,2.157c0.514,0.435 1.066,0.818 1.635,1.174c-2.456,0.898 -4.788,2.409 -6.997,4.571l-1.239,1.282c6.237,-0.592 12.386,-2.006 18.247,-4.211c0.522,-0.13 1.043,-0.283 1.558,-0.471c0.554,-0.18 1.057,-0.459 1.538,-0.77" style="fill:#363e8e;fill-rule:nonzero;"/><path d="M104.629,215.341c0.519,-3.511 -0.186,-7.154 -2.009,-10.549c-0.402,0.215 -0.788,0.455 -1.156,0.727c-0.626,0.464 -1.179,0.997 -1.669,1.597c-0.48,0.614 -0.917,1.266 -1.355,1.895c-0.839,1.311 -1.457,2.879 -1.891,4.641c-0.939,3.35 -1.248,7.408 -0.511,11.647c0.535,-0.187 1.066,-0.404 1.589,-0.656c0.462,-0.2 0.902,-0.431 1.321,-0.687c5.661,-2.791 10.854,-6.498 15.517,-10.723c-0.602,-0.014 -1.2,-0.005 -1.794,0.032c-3.07,0.156 -5.738,0.863 -8.042,2.076" style="fill:#363e8e;fill-rule:nonzero;"/><path d="M128.933,182.881c-0.714,-1.422 -1.787,-2.765 -3.029,-3.915c-1.443,-1.332 -3.145,-2.434 -5.049,-3.298c-0.175,0.417 -0.322,0.843 -0.435,1.286c-0.192,0.753 -0.284,1.516 -0.287,2.294c-0.092,0.751 -0.091,1.516 -0.009,2.298c0.128,1.546 0.748,3.231 1.33,4.832c1.237,3.211 3.612,6.706 6.691,9.587l-0.001,0c-4.144,-1.107 -8.283,-1.207 -11.647,-0.53c-3.634,0.527 -6.364,1.949 -8.562,4.158c-0.307,0.34 -0.584,0.701 -0.836,1.079c3.213,2.112 6.825,3.175 10.34,2.947c-1.408,2.191 -2.344,4.791 -2.776,7.836c-0.091,0.585 -0.156,1.178 -0.197,1.778c4.78,-4.398 8.999,-9.435 12.369,-15.004c0.17,-0.246 0.346,-0.487 0.503,-0.746c0.302,-0.497 0.569,-1.004 0.807,-1.518c0.372,-0.439 0.607,-0.964 0.872,-1.48c0.207,-0.436 0.393,-0.877 0.559,-1.321c2.761,-5.694 4.743,-11.756 5.879,-17.978c-0.474,0.358 -0.931,0.731 -1.366,1.123c-2.472,1.981 -4.06,4.203 -5.156,6.572" style="fill:#363e8e;fill-rule:nonzero;"/><path d="M136.57,153.111c0.064,-0.565 0.099,-1.138 0.099,-1.718c0,-0.563 -0.039,-1.118 -0.099,-1.667l0,-18.765c-0.415,0.436 -0.811,0.892 -1.183,1.371c-1.919,2.474 -3,5.229 -3.308,8.011c-2.501,-2.617 -5.859,-4.581 -9.707,-5.533c-0.064,0.566 -0.099,1.138 -0.099,1.718c0.001,7.9 6.051,14.542 14.296,16.583c-4.123,1.021 -7.697,3.191 -10.24,6.095c-0.636,0.725 -1.208,1.497 -1.707,2.308c-0.507,0.779 -0.904,1.753 -1.315,2.387c-0.781,1.414 -1.236,2.878 -1.296,4.439c0.009,0.463 -0.078,0.906 -0.072,1.356c4.023,-0.262 7.381,-1.65 10.015,-4.003c0.183,2.612 1.123,5.261 2.541,7.955c0.296,0.523 0.618,1.035 0.96,1.538c1.24,-6.125 1.117,-12.38 1.102,-18.607c0.067,-0.576 0.111,-1.158 0.111,-1.749c0,-0.58 -0.035,-1.153 -0.099,-1.719" style="fill:#363e8e;fill-rule:nonzero;"/></svg>